# xmcd CD database file
#
# Track frame offsets:
#	150
#	15531
#	28852
#	40492
#	54445
#	67090
#	82067
#	94975
#	108578
#	121848
#	134710
#	151136
#	163880
#	178911
#	192826
#	204406
#	217624
#	229612
#
# Disc length: 3227 seconds
#
# Revision: 0
# Processed by: cddbd v1.5.2PL0 Copyright (c) Steve Scherf et al.
# Submitted via: CDex 1.51
#
DISCID=fe0c9912
DTITLE=Glenn Miller - Masters Of Music CD2
DYEAR=2005
DGENRE=Jazz
TTITLE0=Take The 'A' Train
TTITLE1=Beat me Daddy, Eight to the Bar
TTITLE2=Shake Down The Stars
TTITLE3=Fifth Avenue
TTITLE4=A Cabana in Havana
TTITLE5=Rainbow Rhapsody
TTITLE6=Make Believe Ballroom Time
TTITLE7=It Was Written in the Stars
TTITLE8=Chapel in the Valley
TTITLE9=Somewhere
TTITLE10=I Dreamt I Dwelt in Harlem
TTITLE11=Moonlight Mood
TTITLE12=American Patrol
TTITLE13=Devil May Care
TTITLE14=On The Old Assembly Line
TTITLE15=Happy in Love
TTITLE16=Let's All Sing Together
TTITLE17=I'm Steppin' Out With a Memory Tonight
EXTD=YEAR: 2005
EXTT0=
EXTT1=
EXTT2=
EXTT3=
EXTT4=
EXTT5=
EXTT6=
EXTT7=
EXTT8=
EXTT9=
EXTT10=
EXTT11=
EXTT12=
EXTT13=
EXTT14=
EXTT15=
EXTT16=
EXTT17=
PLAYORDER=
